<?xml version="1.0" ?><svg height="512" id="svg2996" version="1.1" width="512" xmlns="http://www.w3.org/2000/svg" xmlns:cc="http://creativecommons.org/ns#" xmlns:dc="http://purl.org/dc/elements/1.1/" xmlns:inkscape="http://www.inkscape.org/namespaces/inkscape" xmlns:rdf="http://www.w3.org/1999/02/22-rdf-syntax-ns#" xmlns:sodipodi="http://sodipodi.sourceforge.net/DTD/sodipodi-0.dtd" xmlns:svg="http://www.w3.org/2000/svg"><defs id="defs3000"/><path d="m 179.56345,508.00743 c -13.72201,-5.36139 -21.81993,-11.75215 -42.051,-33.18457 C 93.190939,427.86951 70.735969,407.1643 54.752299,398.5115 c -21.1706,-11.46032 -34.40926,-23.44824 -40.61703,-36.77934 -6.6473303,-14.27493 -6.5099003,-25.71609 0.47766,-39.73844 9.53142,-19.12714 17.35388,-22.7217 74.49578,-34.2337 20.911401,-4.21277 54.078571,-11.59342 73.704671,-16.40117 29.59103,-7.24844 38.53531,-8.61165 52.38347,-7.9826 14.38416,0.65314 17.97437,1.65856 25.89414,7.25228 21.73629,15.35185 30.1786,39.29308 21.79916,61.81935 -2.42726,6.52446 -8.81404,23.5667 -14.19323,37.87117 l -9.78044,26.00839 -0.0845,39.16106 c -0.0932,43.92597 -2.57437,57.08512 -12.49526,66.29055 -11.80238,10.95147 -28.86952,13.22418 -46.7739,6.22838 z m 132.22936,-62.82085 c -13.83409,-12.14659 -21.53018,-42.89561 -16.63649,-66.46878 3.52826,-16.99549 14.51093,-28.43955 39.11203,-40.75472 22.33296,-11.18002 39.21931,-15.20471 57.02162,-13.59028 14.20749,1.28821 21.27006,5.37705 29.1673,16.88621 10.50368,15.30766 2.92399,41.63978 -18.74813,65.13133 -18.47744,20.0288 -53.32777,41.0856 -73.22591,44.24371 -7.89008,1.25225 -9.75184,0.64457 -16.69042,-5.44747 z M 451.3979,326.79446 c -4.06661,-5.17022 -4.28965,-6.49876 -1.75426,-10.45828 4.12405,-6.44095 20.88905,-14.54685 28.58104,-13.81903 9.75788,0.92345 9.28648,6.69985 -1.45561,17.84021 -12.18318,12.63532 -19.11268,14.39304 -25.37117,6.4371 z M 348.07967,278.45293 c -9.99374,-4.53927 -21.69768,-17.23949 -28.57212,-31.00449 -4.01766,-8.04425 -4.37095,-10.73122 -2.50398,-19.04072 3.21354,-14.30157 9.44147,-22.86208 25.48451,-35.02884 25.12039,-19.05057 62.2053,-34.37765 83.17888,-34.37765 10.87649,0 22.31973,4.92533 25.57489,11.0076 1.65781,3.09766 2.21677,10.33469 1.53449,19.8702 -2.54318,35.54477 -38.38965,78.88756 -73.98621,89.45863 -13.99728,4.15684 -19.99134,3.98401 -30.71046,-0.88473 z M 93.940219,229.44842 c -13.35878,-11.24041 -17.53724,-35.8049 -10.30388,-60.57277 6.38159,-21.8506 16.677441,-40.53453 29.478311,-53.49332 15.53221,-15.723477 27.47893,-21.773367 45.55931,-23.071417 12.86568,-0.92352 14.80785,-0.50035 20.58995,4.48591 6.299,5.432017 6.38115,5.790697 6.14404,26.811147 -0.19722,17.54542 -1.42873,24.94038 -6.9748,41.90375 -8.03137,24.56489 -15.44832,36.89875 -29.7993,49.55444 -22.18275,19.56239 -42.26251,24.84249 -54.693631,14.38226 z M 241.99977,194.19183 c -9.74489,-2.20153 -15.53761,-11.89995 -18.64972,-31.22501 -3.49075,-21.67493 4.67198,-44.75431 20.76248,-58.70422 26.84844,-23.276957 80.05396,-42.792247 99.32617,-36.431717 13.00307,4.29156 16.31157,21.91982 7.41237,39.497677 -8.37576,16.54439 -30.18031,45.17169 -43.83037,57.545 -19.46705,17.64579 -51.91835,32.27839 -65.02093,29.31827 z m 230.82426,-74.48941 c 0,-12.45805 13.18667,-27.889627 23.83276,-27.889627 10.52559,0 6.83502,14.792407 -6.75329,27.068777 -10.89358,9.84137 -17.07947,10.13873 -17.07947,0.82085 z M 182.93911,62.201613 c -9.92242,-4.00371 9.70286,-26.74032 23.08112,-26.74032 6.34236,0 7.72861,4.76714 3.66912,12.61724 -6.18956,11.96924 -17.40868,17.89263 -26.75024,14.12308 z M 386.6713,29.691293 c -5.28576,-2.13286 -3.1015,-15.17807 3.67631,-21.9556995 7.68414,-7.68402002 13.79136,-9.60823 18.8218,-5.92981 3.28919,2.40513 3.39453,3.55355 0.88255,9.6177395 -3.50028,8.45022 -13.78098,19.76435 -17.74812,19.53216 -1.60774,-0.0931 -4.14247,-0.66333 -5.63254,-1.26439 z" id="path4798" style="fill:#000000"/></svg>